<svg width="128" height="108" viewBox="0 0 128 108" fill="none" xmlns="http://www.w3.org/2000/svg">
<g id="Frame 1" filter="url(#filter0_d_1_2)">
<g id="light">
<path id="lightblue" d="M50.4601 49.6295C51.1373 50.0123 51.1373 50.9877 50.4601 51.3705L17.4921 70.0081C16.8255 70.3849 16 69.9033 16 69.1375V31.8625C16 31.0967 16.8255 30.6151 17.4921 30.9919L50.4601 49.6295Z" fill="#60C0D6" fill-opacity="0.7"/>
</g>
<g id="dark">
<path id="darkblue1" d="M62.4601 49.6295C63.1373 50.0123 63.1373 50.9877 62.4601 51.3705L29.4921 70.0081C28.8255 70.3849 28 69.9033 28 69.1375V31.8625C28 31.0967 28.8255 30.6151 29.4921 30.9919L62.4601 49.6295Z" fill="#435BB4" fill-opacity="0.7"/>
<path id="darkblue2" d="M50.4601 49.6295C51.1373 50.0123 51.1373 50.9877 50.4601 51.3705L17.4921 70.0081C16.8255 70.3849 16 69.9033 16 69.1375V31.8625C16 31.0967 16.8255 30.6151 17.4921 30.9919L50.4601 49.6295Z" fill="#435BB4" fill-opacity="0.7"/>
</g>
</g>
<defs>
<filter id="filter0_d_1_2" x="0" y="0" width="128" height="108" filterUnits="userSpaceOnUse" color-interpolation-filters="sRGB">
<feFlood flood-opacity="0" result="BackgroundImageFix"/>
<feColorMatrix in="SourceAlpha" type="matrix" values="0 0 0 0 0 0 0 0 0 0 0 0 0 0 0 0 0 0 127 0" result="hardAlpha"/>
<feOffset dy="4"/>
<feGaussianBlur stdDeviation="2"/>
<feComposite in2="hardAlpha" operator="out"/>
<feColorMatrix type="matrix" values="0 0 0 0 0 0 0 0 0 0 0 0 0 0 0 0 0 0 0.25 0"/>
<feBlend mode="normal" in2="BackgroundImageFix" result="effect1_dropShadow_1_2"/>
<feBlend mode="normal" in="SourceGraphic" in2="effect1_dropShadow_1_2" result="shape"/>
</filter>
</defs>
</svg>
